<svg width="1237" height="375" viewBox="0 0 1237 375" fill="none" xmlns="http://www.w3.org/2000/svg">
<path d="M138.773 123.563C138.969 122.927 139.038 122.258 138.975 121.594C138.912 120.931 138.718 120.287 138.405 119.698C138.091 119.11 137.664 118.588 137.148 118.164C136.632 117.739 136.037 117.42 135.397 117.224C134.757 117.028 134.084 116.96 133.417 117.023C132.75 117.085 132.102 117.278 131.511 117.59C130.919 117.902 130.394 118.326 129.967 118.839C129.54 119.353 129.219 119.945 129.023 120.581L88.2274 252.437C87.8298 253.723 87.9621 255.113 88.5952 256.302C89.2282 257.49 90.3103 258.38 91.6032 258.776C92.8961 259.171 94.2941 259.04 95.4895 258.41C96.6849 257.781 97.5798 256.705 97.9775 255.419L138.773 123.563ZM81.4146 148.91C81.8895 149.381 82.2663 149.941 82.5234 150.557C82.7804 151.173 82.9128 151.833 82.9128 152.5C82.9128 153.168 82.7804 153.828 82.5234 154.444C82.2663 155.06 81.8895 155.62 81.4146 156.091L49.319 188L81.4146 219.909C82.3722 220.861 82.9101 222.153 82.9101 223.5C82.9101 224.846 82.3722 226.138 81.4146 227.09C80.4571 228.042 79.1584 228.577 77.8043 228.577C76.4501 228.577 75.1514 228.042 74.1939 227.09L38.4981 191.591C38.0232 191.119 37.6465 190.56 37.3894 189.944C37.1323 189.328 37 188.667 37 188C37 187.333 37.1323 186.672 37.3894 186.056C37.6465 185.44 38.0232 184.881 38.4981 184.409L74.1939 148.91C74.6676 148.438 75.2303 148.063 75.8498 147.807C76.4693 147.552 77.1335 147.42 77.8043 147.42C78.475 147.42 79.1392 147.552 79.7587 147.807C80.3782 148.063 80.9409 148.438 81.4146 148.91ZM145.585 148.91C145.11 149.381 144.734 149.941 144.477 150.557C144.22 151.173 144.087 151.833 144.087 152.5C144.087 153.168 144.22 153.828 144.477 154.444C144.734 155.06 145.11 155.62 145.585 156.091L177.681 188L145.585 219.909C145.111 220.381 144.735 220.94 144.479 221.556C144.222 222.172 144.09 222.833 144.09 223.5C144.09 224.166 144.222 224.827 144.479 225.443C144.735 226.059 145.111 226.619 145.585 227.09C146.059 227.562 146.622 227.936 147.242 228.191C147.861 228.446 148.525 228.577 149.196 228.577C149.866 228.577 150.53 228.446 151.15 228.191C151.769 227.936 152.332 227.562 152.806 227.09L188.502 191.591C188.977 191.119 189.354 190.56 189.611 189.944C189.868 189.328 190 188.667 190 188C190 187.333 189.868 186.672 189.611 186.056C189.354 185.44 188.977 184.881 188.502 184.409L152.806 148.91C152.332 148.438 151.77 148.063 151.15 147.807C150.531 147.552 149.866 147.42 149.196 147.42C148.525 147.42 147.861 147.552 147.241 147.807C146.622 148.063 146.059 148.438 145.585 148.91Z" fill="url(#paint0_linear_3_2)" stroke="url(#paint1_linear_3_2)" stroke-width="4"/>
<path d="M225.36 186.4C225.36 179.808 226.832 173.92 229.776 168.736C232.784 163.488 236.848 159.424 241.968 156.544C247.152 153.6 252.944 152.128 259.344 152.128C266.832 152.128 273.392 154.048 279.024 157.888C284.656 161.728 288.592 167.04 290.832 173.824H275.376C273.84 170.624 271.664 168.224 268.848 166.624C266.096 165.024 262.896 164.224 259.248 164.224C255.344 164.224 251.856 165.152 248.784 167.008C245.776 168.8 243.408 171.36 241.68 174.688C240.016 178.016 239.184 181.92 239.184 186.4C239.184 190.816 240.016 194.72 241.68 198.112C243.408 201.44 245.776 204.032 248.784 205.888C251.856 207.68 255.344 208.576 259.248 208.576C262.896 208.576 266.096 207.776 268.848 206.176C271.664 204.512 273.84 202.08 275.376 198.88H290.832C288.592 205.728 284.656 211.072 279.024 214.912C273.456 218.688 266.896 220.576 259.344 220.576C252.944 220.576 247.152 219.136 241.968 216.256C236.848 213.312 232.784 209.248 229.776 204.064C226.832 198.88 225.36 192.992 225.36 186.4ZM352.52 166.816V220H338.984V213.28C337.256 215.584 334.984 217.408 332.168 218.752C329.416 220.032 326.408 220.672 323.144 220.672C318.984 220.672 315.304 219.808 312.104 218.08C308.904 216.288 306.376 213.696 304.52 210.304C302.728 206.848 301.832 202.752 301.832 198.016V166.816H315.272V196.096C315.272 200.32 316.328 203.584 318.44 205.888C320.552 208.128 323.432 209.248 327.08 209.248C330.792 209.248 333.704 208.128 335.816 205.888C337.928 203.584 338.984 200.32 338.984 196.096V166.816H352.52ZM386.132 220.864C381.78 220.864 377.876 220.096 374.42 218.56C370.964 216.96 368.212 214.816 366.164 212.128C364.18 209.44 363.092 206.464 362.9 203.2H376.436C376.692 205.248 377.684 206.944 379.412 208.288C381.204 209.632 383.412 210.304 386.036 210.304C388.596 210.304 390.58 209.792 391.988 208.768C393.46 207.744 394.196 206.432 394.196 204.832C394.196 203.104 393.3 201.824 391.508 200.992C389.78 200.096 386.996 199.136 383.156 198.112C379.188 197.152 375.924 196.16 373.364 195.136C370.868 194.112 368.692 192.544 366.836 190.432C365.044 188.32 364.148 185.472 364.148 181.888C364.148 178.944 364.98 176.256 366.644 173.824C368.372 171.392 370.804 169.472 373.94 168.064C377.14 166.656 380.884 165.952 385.172 165.952C391.508 165.952 396.564 167.552 400.34 170.752C404.116 173.888 406.196 178.144 406.58 183.52H393.716C393.524 181.408 392.628 179.744 391.028 178.528C389.492 177.248 387.412 176.608 384.788 176.608C382.356 176.608 380.468 177.056 379.124 177.952C377.844 178.848 377.204 180.096 377.204 181.696C377.204 183.488 378.1 184.864 379.892 185.824C381.684 186.72 384.468 187.648 388.244 188.608C392.084 189.568 395.252 190.56 397.748 191.584C400.244 192.608 402.388 194.208 404.18 196.384C406.036 198.496 406.996 201.312 407.06 204.832C407.06 207.904 406.196 210.656 404.468 213.088C402.804 215.52 400.372 217.44 397.172 218.848C394.036 220.192 390.356 220.864 386.132 220.864ZM433.741 177.856V203.584C433.741 205.376 434.157 206.688 434.989 207.52C435.885 208.288 437.357 208.672 439.405 208.672H445.645V220H437.197C425.869 220 420.205 214.496 420.205 203.488V177.856H413.869V166.816H420.205V153.664H433.741V166.816H445.645V177.856H433.741ZM478.928 220.864C473.808 220.864 469.2 219.744 465.104 217.504C461.008 215.2 457.776 211.968 455.408 207.808C453.104 203.648 451.952 198.848 451.952 193.408C451.952 187.968 453.136 183.168 455.504 179.008C457.936 174.848 461.232 171.648 465.392 169.408C469.552 167.104 474.192 165.952 479.312 165.952C484.432 165.952 489.072 167.104 493.232 169.408C497.392 171.648 500.656 174.848 503.024 179.008C505.456 183.168 506.672 187.968 506.672 193.408C506.672 198.848 505.424 203.648 502.927 207.808C500.496 211.968 497.168 215.2 492.944 217.504C488.784 219.744 484.112 220.864 478.928 220.864ZM478.928 209.152C481.36 209.152 483.632 208.576 485.744 207.424C487.92 206.208 489.648 204.416 490.928 202.048C492.208 199.68 492.848 196.8 492.848 193.408C492.848 188.352 491.504 184.48 488.816 181.792C486.192 179.04 482.96 177.664 479.12 177.664C475.28 177.664 472.048 179.04 469.424 181.792C466.864 184.48 465.584 188.352 465.584 193.408C465.584 198.464 466.832 202.368 469.328 205.12C471.888 207.808 475.088 209.152 478.928 209.152ZM582.578 166.048C589.106 166.048 594.354 168.064 598.322 172.096C602.354 176.064 604.37 181.632 604.37 188.8V220H590.93V190.624C590.93 186.464 589.874 183.296 587.762 181.12C585.65 178.88 582.77 177.76 579.122 177.76C575.474 177.76 572.562 178.88 570.386 181.12C568.274 183.296 567.218 186.464 567.218 190.624V220H553.778V190.624C553.778 186.464 552.722 183.296 550.61 181.12C548.498 178.88 545.618 177.76 541.97 177.76C538.258 177.76 535.314 178.88 533.138 181.12C531.026 183.296 529.97 186.464 529.97 190.624V220H516.53V166.816H529.97V173.248C531.698 171.008 533.906 169.248 536.594 167.968C539.346 166.688 542.354 166.048 545.618 166.048C549.778 166.048 553.49 166.944 556.754 168.736C560.018 170.464 562.546 172.96 564.338 176.224C566.066 173.152 568.562 170.688 571.826 168.832C575.154 166.976 578.738 166.048 582.578 166.048ZM636.735 186.4C636.735 179.808 638.207 173.92 641.151 168.736C644.159 163.488 648.223 159.424 653.343 156.544C658.527 153.6 664.319 152.128 670.719 152.128C678.207 152.128 684.767 154.048 690.399 157.888C696.031 161.728 699.967 167.04 702.207 173.824H686.751C685.215 170.624 683.039 168.224 680.223 166.624C677.471 165.024 674.271 164.224 670.623 164.224C666.719 164.224 663.231 165.152 660.159 167.008C657.151 168.8 654.783 171.36 653.055 174.688C651.391 178.016 650.559 181.92 650.559 186.4C650.559 190.816 651.391 194.72 653.055 198.112C654.783 201.44 657.151 204.032 660.159 205.888C663.231 207.68 666.719 208.576 670.623 208.576C674.271 208.576 677.471 207.776 680.223 206.176C683.039 204.512 685.215 202.08 686.751 198.88H702.207C699.967 205.728 696.031 211.072 690.399 214.912C684.831 218.688 678.271 220.576 670.719 220.576C664.319 220.576 658.527 219.136 653.343 216.256C648.223 213.312 644.159 209.248 641.151 204.064C638.207 198.88 636.735 192.992 636.735 186.4ZM737.303 220.864C732.183 220.864 727.575 219.744 723.479 217.504C719.383 215.2 716.151 211.968 713.783 207.808C711.479 203.648 710.327 198.848 710.327 193.408C710.327 187.968 711.511 183.168 713.879 179.008C716.311 174.848 719.607 171.648 723.767 169.408C727.927 167.104 732.567 165.952 737.687 165.952C742.807 165.952 747.447 167.104 751.607 169.408C755.767 171.648 759.031 174.848 761.399 179.008C763.831 183.168 765.047 187.968 765.047 193.408C765.047 198.848 763.799 203.648 761.302 207.808C758.871 211.968 755.543 215.2 751.319 217.504C747.159 219.744 742.487 220.864 737.303 220.864ZM737.303 209.152C739.735 209.152 742.007 208.576 744.119 207.424C746.295 206.208 748.023 204.416 749.303 202.048C750.583 199.68 751.223 196.8 751.223 193.408C751.223 188.352 749.879 184.48 747.191 181.792C744.567 179.04 741.335 177.664 737.495 177.664C733.655 177.664 730.423 179.04 727.799 181.792C725.239 184.48 723.959 188.352 723.959 193.408C723.959 198.464 725.207 202.368 727.703 205.12C730.263 207.808 733.463 209.152 737.303 209.152ZM771.449 193.216C771.449 187.84 772.505 183.072 774.617 178.912C776.793 174.752 779.737 171.552 783.449 169.312C787.161 167.072 791.289 165.952 795.833 165.952C799.289 165.952 802.585 166.72 805.721 168.256C808.857 169.728 811.353 171.712 813.209 174.208V148.96H826.841V220H813.209V212.128C811.545 214.752 809.209 216.864 806.201 218.464C803.193 220.064 799.705 220.864 795.737 220.864C791.257 220.864 787.161 219.712 783.449 217.408C779.737 215.104 776.793 211.872 774.617 207.712C772.505 203.488 771.449 198.656 771.449 193.216ZM813.305 193.408C813.305 190.144 812.665 187.36 811.385 185.056C810.105 182.688 808.377 180.896 806.201 179.68C804.025 178.4 801.689 177.76 799.193 177.76C796.697 177.76 794.393 178.368 792.281 179.584C790.169 180.8 788.441 182.592 787.097 184.96C785.817 187.264 785.177 190.016 785.177 193.216C785.177 196.416 785.817 199.232 787.097 201.664C788.441 204.032 790.169 205.856 792.281 207.136C794.457 208.416 796.761 209.056 799.193 209.056C801.689 209.056 804.025 208.448 806.201 207.232C808.377 205.952 810.105 204.16 811.385 201.856C812.665 199.488 813.305 196.672 813.305 193.408ZM889.408 192.256C889.408 194.176 889.28 195.904 889.024 197.44H850.144C850.464 201.28 851.808 204.288 854.176 206.464C856.544 208.64 859.456 209.728 862.912 209.728C867.904 209.728 871.456 207.584 873.568 203.296H888.064C886.528 208.416 883.584 212.64 879.232 215.968C874.88 219.232 869.536 220.864 863.2 220.864C858.08 220.864 853.472 219.744 849.376 217.504C845.344 215.2 842.176 211.968 839.872 207.808C837.632 203.648 836.512 198.848 836.512 193.408C836.512 187.904 837.632 183.072 839.872 178.912C842.112 174.752 845.248 171.552 849.28 169.312C853.312 167.072 857.952 165.952 863.2 165.952C868.256 165.952 872.768 167.04 876.736 169.216C880.768 171.392 883.872 174.496 886.048 178.528C888.288 182.496 889.408 187.072 889.408 192.256ZM875.488 188.416C875.424 184.96 874.176 182.208 871.744 180.16C869.312 178.048 866.336 176.992 862.816 176.992C859.488 176.992 856.672 178.016 854.368 180.064C852.128 182.048 850.752 184.832 850.24 188.416H875.488ZM935.533 163.84V180.64H958.093V191.296H935.533V209.056H960.973V220H922.093V152.896H960.973V163.84H935.533ZM969.73 193.216C969.73 187.84 970.786 183.072 972.898 178.912C975.075 174.752 978.019 171.552 981.731 169.312C985.443 167.072 989.571 165.952 994.115 165.952C997.571 165.952 1000.87 166.72 1004 168.256C1007.14 169.728 1009.63 171.712 1011.49 174.208V148.96H1025.12V220H1011.49V212.128C1009.83 214.752 1007.49 216.864 1004.48 218.464C1001.47 220.064 997.987 220.864 994.019 220.864C989.539 220.864 985.443 219.712 981.731 217.408C978.019 215.104 975.075 211.872 972.898 207.712C970.786 203.488 969.73 198.656 969.73 193.216ZM1011.59 193.408C1011.59 190.144 1010.95 187.36 1009.67 185.056C1008.39 182.688 1006.66 180.896 1004.48 179.68C1002.31 178.4 999.971 177.76 997.475 177.76C994.979 177.76 992.675 178.368 990.562 179.584C988.451 180.8 986.723 182.592 985.379 184.96C984.099 187.264 983.459 190.016 983.459 193.216C983.459 196.416 984.099 199.232 985.379 201.664C986.723 204.032 988.451 205.856 990.562 207.136C992.739 208.416 995.043 209.056 997.475 209.056C999.971 209.056 1002.31 208.448 1004.48 207.232C1006.66 205.952 1008.39 204.16 1009.67 201.856C1010.95 199.488 1011.59 196.672 1011.59 193.408ZM1045.07 160.48C1042.7 160.48 1040.71 159.744 1039.11 158.272C1037.58 156.736 1036.81 154.848 1036.81 152.608C1036.81 150.368 1037.58 148.512 1039.11 147.04C1040.71 145.504 1042.7 144.736 1045.07 144.736C1047.43 144.736 1049.39 145.504 1050.92 147.04C1052.52 148.512 1053.32 150.368 1053.32 152.608C1053.32 154.848 1052.52 156.736 1050.92 158.272C1049.39 159.744 1047.43 160.48 1045.07 160.48ZM1051.69 166.816V220H1038.25V166.816H1051.69ZM1080.62 177.856V203.584C1080.62 205.376 1081.03 206.688 1081.86 207.52C1082.76 208.288 1084.23 208.672 1086.28 208.672H1092.52V220H1084.07C1072.74 220 1067.08 214.496 1067.08 203.488V177.856H1060.74V166.816H1067.08V153.664H1080.62V166.816H1092.52V177.856H1080.62ZM1125.8 220.864C1120.68 220.864 1116.07 219.744 1111.98 217.504C1107.88 215.2 1104.65 211.968 1102.28 207.808C1099.98 203.648 1098.83 198.848 1098.83 193.408C1098.83 187.968 1100.01 183.168 1102.38 179.008C1104.81 174.848 1108.11 171.648 1112.27 169.408C1116.43 167.104 1121.07 165.952 1126.19 165.952C1131.31 165.952 1135.95 167.104 1140.11 169.408C1144.27 171.648 1147.53 174.848 1149.9 179.008C1152.33 183.168 1153.55 187.968 1153.55 193.408C1153.55 198.848 1152.3 203.648 1149.8 207.808C1147.37 211.968 1144.04 215.2 1139.82 217.504C1135.66 219.744 1130.99 220.864 1125.8 220.864ZM1125.8 209.152C1128.23 209.152 1130.51 208.576 1132.62 207.424C1134.79 206.208 1136.52 204.416 1137.8 202.048C1139.08 199.68 1139.72 196.8 1139.72 193.408C1139.72 188.352 1138.38 184.48 1135.69 181.792C1133.07 179.04 1129.83 177.664 1125.99 177.664C1122.15 177.664 1118.92 179.04 1116.3 181.792C1113.74 184.48 1112.46 188.352 1112.46 193.408C1112.46 198.464 1113.71 202.368 1116.2 205.12C1118.76 207.808 1121.96 209.152 1125.8 209.152ZM1176.85 175.072C1178.57 172.256 1180.81 170.048 1183.57 168.448C1186.38 166.848 1189.58 166.048 1193.17 166.048V180.16H1189.61C1185.39 180.16 1182.19 181.152 1180.01 183.136C1177.9 185.12 1176.85 188.576 1176.85 193.504V220H1163.41V166.816H1176.85V175.072Z" fill="url(#paint2_linear_3_2)"/>
<defs>
<linearGradient id="paint0_linear_3_2" x1="190" y1="259" x2="37.0713" y2="116.923" gradientUnits="userSpaceOnUse">
<stop stop-color="#2837BA"/>
<stop offset="1" stop-color="#2F1888"/>
</linearGradient>
<linearGradient id="paint1_linear_3_2" x1="190" y1="259" x2="37.0713" y2="116.923" gradientUnits="userSpaceOnUse">
<stop stop-color="#2837BA"/>
<stop offset="1" stop-color="#2F1888"/>
</linearGradient>
<linearGradient id="paint2_linear_3_2" x1="1198.5" y1="186" x2="222" y2="186" gradientUnits="userSpaceOnUse">
<stop stop-color="#2837BA"/>
<stop offset="1" stop-color="#2F1888"/>
</linearGradient>
</defs>
</svg>
