<svg width="128" height="128" viewBox="0 0 128 128" fill="none" xmlns="http://www.w3.org/2000/svg">
<rect width="128" height="128" rx="30" fill="url(#paint0_linear_2_3)"/>
<path d="M77.8751 28.6052C77.9832 28.2555 78.021 27.888 77.9864 27.5237C77.9518 27.1595 77.8454 26.8055 77.6732 26.4822C77.5011 26.1589 77.2667 25.8724 76.9834 25.6392C76.7 25.406 76.3733 25.2306 76.0218 25.1231C75.6703 25.0155 75.301 24.9779 74.9349 25.0124C74.5688 25.0469 74.2131 25.1527 73.8881 25.324C73.5632 25.4952 73.2753 25.7285 73.0409 26.0104C72.8065 26.2924 72.6303 26.6175 72.5222 26.9672L50.1249 99.3948C49.9066 100.101 49.9792 100.865 50.3268 101.518C50.6743 102.171 51.2684 102.66 51.9782 102.877C52.6881 103.094 53.4556 103.022 54.1119 102.676C54.7682 102.33 55.2595 101.739 55.4778 101.033L77.8751 28.6052ZM46.3845 42.528C46.6452 42.7868 46.8521 43.0942 46.9932 43.4326C47.1344 43.771 47.207 44.1338 47.207 44.5003C47.207 44.8667 47.1344 45.2295 46.9932 45.5679C46.8521 45.9063 46.6452 46.2138 46.3845 46.4725L28.7634 64L46.3845 81.5275C46.9102 82.0506 47.2055 82.76 47.2055 83.4997C47.2055 84.2395 46.9102 84.9489 46.3845 85.472C45.8588 85.9951 45.1458 86.2889 44.4023 86.2889C43.6589 86.2889 42.9459 85.9951 42.4202 85.472L22.8225 65.9723C22.5618 65.7135 22.3549 65.4061 22.2138 65.0677C22.0727 64.7292 22 64.3664 22 64C22 63.6336 22.0727 63.2708 22.2138 62.9323C22.3549 62.5939 22.5618 62.2865 22.8225 62.0277L42.4202 42.528C42.6802 42.2686 42.9892 42.0628 43.3293 41.9223C43.6694 41.7819 44.0341 41.7096 44.4023 41.7096C44.7706 41.7096 45.1352 41.7819 45.4754 41.9223C45.8155 42.0628 46.1244 42.2686 46.3845 42.528ZM81.6155 42.528C81.3548 42.7868 81.1479 43.0942 81.0068 43.4326C80.8656 43.771 80.793 44.1338 80.793 44.5003C80.793 44.8667 80.8656 45.2295 81.0068 45.5679C81.1479 45.9063 81.3548 46.2138 81.6155 46.4725L99.2366 64L81.6155 81.5275C81.3552 81.7865 81.1487 82.094 81.0078 82.4324C80.867 82.7708 80.7945 83.1335 80.7945 83.4997C80.7945 83.866 80.867 84.2287 81.0078 84.5671C81.1487 84.9055 81.3552 85.213 81.6155 85.472C81.8758 85.731 82.1848 85.9365 82.5249 86.0766C82.865 86.2168 83.2295 86.2889 83.5977 86.2889C83.9658 86.2889 84.3303 86.2168 84.6704 86.0766C85.0105 85.9365 85.3195 85.731 85.5798 85.472L105.177 65.9723C105.438 65.7135 105.645 65.4061 105.786 65.0677C105.927 64.7292 106 64.3664 106 64C106 63.6336 105.927 63.2708 105.786 62.9323C105.645 62.5939 105.438 62.2865 105.177 62.0277L85.5798 42.528C85.3198 42.2686 85.0108 42.0628 84.6707 41.9223C84.3305 41.7819 83.9659 41.7096 83.5977 41.7096C83.2294 41.7096 82.8648 41.7819 82.5246 41.9223C82.1845 42.0628 81.8756 42.2686 81.6155 42.528Z" fill="white" stroke="white" stroke-width="4"/>
<defs>
<linearGradient id="paint0_linear_2_3" x1="0" y1="0" x2="128" y2="128" gradientUnits="userSpaceOnUse">
<stop stop-color="#2F1888"/>
<stop offset="1" stop-color="#2837BA"/>
</linearGradient>
</defs>
</svg>
